# xmcd
#
# Track frame offsets: 
#        150
#        39336
#        74401
#        94988
#        126129
#        163689
#        199662
#        234261
#        265420
#        282290
#        306253
#
# Disc length: 4510 seconds
#
# Revision: 10
# Processed by: cddbd v1.5.2PL0 Copyright (c) Steve Scherf et al.
# Submitted via: ExactAudioCopy v0.95b3
#
DISCID=9b119c0b
DTITLE=Kansas - Two For The Show [2008 Jap] [CD2]
DYEAR=1978
DGENRE=Rock
TTITLE0=Hopelessly Human
TTITLE1=Child Of Innocence
TTITLE2=Belexes
TTITLE3=Cheyenne Anthem
TTITLE4=Lonely Street
TTITLE5=Miracles Out Of Nowhere
TTITLE6=The Spider
TTITLE7=Closet Chronicles
TTITLE8=Down The Road
TTITLE9=Sparks Of The Tempest
TTITLE10=Bringing It Back
EXTD=YEAR: 1978
EXTT0=
EXTT1=
EXTT2=
EXTT3=
EXTT4=
EXTT5=
EXTT6=
EXTT7=
EXTT8=
EXTT9=
EXTT10=
PLAYORDER=
